{
	"asset":{
		"generator":"Khronos glTF Blender I/O v3.6.27",
		"version":"2.0"
	},
	"scene":0,
	"scenes":[
		{
			"name":"Scene",
			"nodes":[
				0
			]
		}
	],
	"nodes":[
		{
			"mesh":0,
			"name":"Plane"
		}
	],
	"meshes":[
		{
			"name":"Plane",
			"primitives":[
				{
					"attributes":{
						"POSITION":0,
						"NORMAL":1,
						"TEXCOORD_0":2
					},
					"indices":3
				}
			]
		}
	],
	"accessors":[
		{
			"bufferView":0,
			"componentType":5126,
			"count":51,
			"max":[
				1.7000000476837158,
				4.110758304595947,
				1.7000000476837158
			],
			"min":[
				-1.7000000476837158,
				0,
				-1.7000000476837158
			],
			"type":"VEC3"
		},
		{
			"bufferView":1,
			"componentType":5126,
			"count":51,
			"type":"VEC3"
		},
		{
			"bufferView":2,
			"componentType":5126,
			"count":51,
			"type":"VEC2"
		},
		{
			"bufferView":3,
			"componentType":5123,
			"count":192,
			"type":"SCALAR"
		}
	],
	"bufferViews":[
		{
			"buffer":0,
			"byteLength":612,
			"byteOffset":0,
			"target":34962
		},
		{
			"buffer":0,
			"byteLength":612,
			"byteOffset":612,
			"target":34962
		},
		{
			"buffer":0,
			"byteLength":408,
			"byteOffset":1224,
			"target":34962
		},
		{
			"buffer":0,
			"byteLength":384,
			"byteOffset":1632,
			"target":34963
		}
	],
	"buffers":[
		{
			"byteLength":2016,
			"uri":"data:application/octet-stream;base64,"
		}
	]
}
